<?xml version="1.0" encoding="UTF-8"?>
<svg width="90px" height="90px" viewBox="0 0 90 90" version="1.1" xmlns="http://www.w3.org/2000/svg" xmlns:xlink="http://www.w3.org/1999/xlink">
    <!-- Generator: Sketch 55.2 (78181) - https://sketchapp.com -->
    <title>Product Icon / Commerical / Green</title>
    <desc>Created with Sketch.</desc>
    <g id="Product-Icon-/-Commerical-/-Green" stroke="none" stroke-width="1" fill="none" fill-rule="evenodd">
        <path d="M28.5714286,26.015625 L28.5714286,18.984375 C28.5714286,17.8242188 29.5236607,16.875 30.6875,16.875 L37.7410714,16.875 C38.9049107,16.875 39.8571429,17.8242188 39.8571429,18.984375 L39.8571429,26.015625 C39.8571429,27.1757812 38.9049107,28.125 37.7410714,28.125 L30.6875,28.125 C29.5236607,28.125 28.5714286,27.1757812 28.5714286,26.015625 Z M53.2589286,28.125 L60.3125,28.125 C61.4763393,28.125 62.4285714,27.1757812 62.4285714,26.015625 L62.4285714,18.984375 C62.4285714,17.8242188 61.4763393,16.875 60.3125,16.875 L53.2589286,16.875 C52.0950893,16.875 51.1428571,17.8242188 51.1428571,18.984375 L51.1428571,26.015625 C51.1428571,27.1757812 52.0950893,28.125 53.2589286,28.125 Z M30.6875,45 L37.7410714,45 C38.9049107,45 39.8571429,44.0507812 39.8571429,42.890625 L39.8571429,35.859375 C39.8571429,34.6992188 38.9049107,33.75 37.7410714,33.75 L30.6875,33.75 C29.5236607,33.75 28.5714286,34.6992188 28.5714286,35.859375 L28.5714286,42.890625 C28.5714286,44.0507812 29.5236607,45 30.6875,45 Z M53.2589286,45 L60.3125,45 C61.4763393,45 62.4285714,44.0507812 62.4285714,42.890625 L62.4285714,35.859375 C62.4285714,34.6992188 61.4763393,33.75 60.3125,33.75 L53.2589286,33.75 C52.0950893,33.75 51.1428571,34.6992188 51.1428571,35.859375 L51.1428571,42.890625 C51.1428571,44.0507812 52.0950893,45 53.2589286,45 Z M39.8571429,59.765625 L39.8571429,52.734375 C39.8571429,51.5742187 38.9049107,50.625 37.7410714,50.625 L30.6875,50.625 C29.5236607,50.625 28.5714286,51.5742187 28.5714286,52.734375 L28.5714286,59.765625 C28.5714286,60.9257812 29.5236607,61.875 30.6875,61.875 L37.7410714,61.875 C38.9049107,61.875 39.8571429,60.9257812 39.8571429,59.765625 Z M53.2589286,61.875 L60.3125,61.875 C61.4763393,61.875 62.4285714,60.9257812 62.4285714,59.765625 L62.4285714,52.734375 C62.4285714,51.5742187 61.4763393,50.625 60.3125,50.625 L53.2589286,50.625 C52.0950893,50.625 51.1428571,51.5742187 51.1428571,52.734375 L51.1428571,59.765625 C51.1428571,60.9257812 52.0950893,61.875 53.2589286,61.875 Z M85,83.671875 L85,90 L6,90 L6,83.671875 C6,82.5117188 6.95223214,81.5625 8.11607143,81.5625 L11.5546875,81.5625 L11.5546875,4.21875 C11.5546875,1.88085937 13.4415179,0 15.7868304,0 L75.2131696,0 C77.5584821,0 79.4453125,1.88085937 79.4453125,4.21875 L79.4453125,81.5625 L82.8839286,81.5625 C84.0477679,81.5625 85,82.5117188 85,83.671875 Z M20.0189732,81.3867188 L39.8571429,81.3867188 L39.8571429,69.609375 C39.8571429,68.4492188 40.809375,67.5 41.9732143,67.5 L49.0267857,67.5 C50.190625,67.5 51.1428571,68.4492188 51.1428571,69.609375 L51.1428571,81.3867188 L70.9810268,81.3867188 L70.9810268,8.61328125 L20.1071429,8.4375 L20.0189732,81.3867188 Z" id="building" fill="#00BC78" fill-rule="nonzero"></path>
    </g>
</svg>