<?xml version="1.0" encoding="UTF-8"?>
<svg width="40px" height="40px" viewBox="0 0 40 40" version="1.1" xmlns="http://www.w3.org/2000/svg" xmlns:xlink="http://www.w3.org/1999/xlink">
    <!-- Generator: Sketch 55.2 (78181) - https://sketchapp.com -->
    <title>Menu Icon / Customers</title>
    <desc>Created with Sketch.</desc>
    <g id="Menu-Icon-/-Customers" stroke="none" stroke-width="1" fill="none" fill-rule="evenodd">
        <path d="M9.55960625,29.0833333 L5.4714125,29.0833333 C3.55728125,29.0833333 2,27.4251172 2,25.3869219 L2,23.4441406 C2,21.5401719 3.01109375,19.261974 5.31036875,18.3198724 C4.920725,17.5255938 4.7,16.6231432 4.7,15.6666667 C4.7,12.4960807 7.12240625,9.91666667 10.1,9.91666667 C11.2535187,9.91666667 12.3236188,10.304013 13.2019063,10.9626875 C12.7294063,11.9331797 12.445175,12.9998646 12.3701938,14.1112318 C11.8895937,13.317612 11.0527625,12.7916667 10.1,12.7916667 C8.6088125,12.7916667 7.4,14.0788281 7.4,15.6666667 C7.4,17.2545052 8.6088125,18.5416667 10.1,18.5416667 C10.4297579,18.5418685 10.7567458,18.4775716 11.0646875,18.3519766 C10.7909196,18.6722899 10.5437855,19.0173076 10.3260688,19.3831432 C9.95853125,20.00025 9.674975,20.6770729 9.48411875,21.3787526 C8.7519901,21.2901372 8.04487586,21.041772 7.40691875,20.6491615 L6.48025625,20.9310911 C5.42646875,21.2516536 4.7,22.2771901 4.7,23.4441406 L4.7,25.3869219 C4.7,25.8405729 5.045375,26.2083333 5.4714125,26.2083333 L9.2,26.2083333 L9.2,27.0982057 C9.19940597,27.7783275 9.32148572,28.452242 9.55960625,29.0833333 L9.55960625,29.0833333 Z M34.6896312,18.3198724 C35.079275,17.5255938 35.3,16.6231432 35.3,15.6666667 C35.3,12.4960807 32.8775937,9.91666667 29.9,9.91666667 C28.746425,9.91666667 27.676325,10.3040729 26.7979812,10.9627474 C27.2705375,11.9333594 27.554825,13.0000443 27.6298625,14.1112318 C28.1104063,13.317612 28.9472375,12.7916667 29.9,12.7916667 C31.3911875,12.7916667 32.6,14.0788281 32.6,15.6666667 C32.6,17.2545052 31.3911875,18.5416667 29.9,18.5416667 C29.5703212,18.5418583 29.2434121,18.4775822 28.9355375,18.3520365 C29.2113723,18.6749088 29.4601578,19.0228518 29.67905,19.391888 C30.044,20.0066589 30.3258688,20.680487 30.515825,21.3786927 C31.247991,21.2900866 31.9551437,21.0417213 32.5931375,20.6491016 L33.5198,20.9310312 C34.5735313,21.2516536 35.3,22.2771901 35.3,23.4441406 L35.3,25.3869219 C35.3,25.8405729 34.954625,26.2083333 34.5285875,26.2083333 L30.8,26.2083333 L30.8,27.0982057 C30.800594,27.7783275 30.6785143,28.452242 30.4403937,29.0833333 L34.5285875,29.0833333 C36.442775,29.0833333 38,27.4251172 38,25.3869219 L38,23.4441406 C38,21.540112 36.9878375,19.2614948 34.6896312,18.3198724 Z M29.45,23.4718724 L29.45,27.0982057 C29.45,29.2496641 27.8062062,31 25.7857062,31 L14.2142937,31 C12.1937938,31 10.55,29.2496641 10.55,27.0982057 L10.55,23.4718724 C10.55,21.3033438 11.7241625,18.7149453 14.3566063,17.6973151 C13.92725,16.78025 13.7,15.7629193 13.7,14.7083333 C13.7,10.9972474 16.520825,8 20,8 C23.4851938,8 26.3,11.0035964 26.3,14.7083333 C26.3,15.7629193 26.07275,16.78025 25.6433937,17.6973151 C28.2864125,18.7190182 29.45,21.3177188 29.45,23.4718724 Z M16.4,14.7083333 C16.4,16.8254115 18.0117875,18.5416667 20,18.5416667 C21.9882125,18.5416667 23.6,16.8254115 23.6,14.7083333 C23.6,12.5912552 21.9882125,10.875 20,10.875 C18.0117875,10.875 16.4,12.5912552 16.4,14.7083333 Z M26.75,23.4718724 C26.75,22.0131693 25.8419,20.7312786 24.5246938,20.3305156 L23.755025,20.0963229 C22.6753062,20.9533125 21.3710938,21.4166667 20,21.4166667 C18.6289062,21.4166667 17.3246938,20.9533125 16.244975,20.0963229 L15.4753063,20.3305156 C14.1581,20.7312188 13.25,22.0131693 13.25,23.4718724 L13.25,27.0982057 C13.25,27.6652995 13.6817187,28.125 14.2142937,28.125 L25.7857062,28.125 C26.3182812,28.125 26.75,27.6652995 26.75,27.0982057 L26.75,23.4718724 Z" id="people" fill="#323539" fill-rule="nonzero"></path>
    </g>
</svg>