<?xml version="1.0" encoding="UTF-8"?>
<svg width="40px" height="40px" viewBox="0 0 40 40" version="1.1" xmlns="http://www.w3.org/2000/svg" xmlns:xlink="http://www.w3.org/1999/xlink">
    <!-- Generator: Sketch 55.2 (78181) - https://sketchapp.com -->
    <title>Menu Icon / Dashboard</title>
    <desc>Created with Sketch.</desc>
    <g id="Menu-Icon-/-Dashboard" stroke="none" stroke-width="1" fill="none" fill-rule="evenodd">
        <path d="M20,6 C10.6003576,6 3,13.7803066 3,23.3568846 C3,25.3869412 3.34147569,27.3353929 3.96888194,29.1460084 C4.76947569,31.4564386 6.91064931,33 9.31095486,33 L30.6890451,33 C33.0893507,33 35.2305243,31.4564386 36.0311181,29.1460084 C36.6585243,27.3353929 37,25.3869412 37,23.3568846 C37,13.7803066 29.3996424,6 20,6 Z M33.3600521,28.1810339 C32.9608472,29.3330848 31.8874271,30.1070654 30.6890451,30.1070654 L9.31095486,30.1070654 C8.11257292,30.1070654 7.03915278,29.3330848 6.63994792,28.1810339 C6.10474306,26.6363876 5.83333333,25.0133307 5.83333333,23.3568846 C5.83333333,15.3781708 12.1597535,8.89293463 20,8.89293463 C27.8404826,8.89293463 34.1666667,15.3780503 34.1666667,23.3568846 C34.1666667,25.0133307 33.8952569,26.6363876 33.3600521,28.1810339 Z M25.1158194,14.6710894 L22.4881979,22.3843764 C23.2782847,23.0913975 23.7777778,24.1285749 23.7777778,25.2855076 C23.7777778,27.4157924 22.0863958,29.1427538 20,29.1427538 C17.9136042,29.1427538 16.2222222,27.4157924 16.2222222,25.2855076 C16.2222222,23.2194099 17.8131979,21.5329495 19.8124687,21.433083 L22.4397951,13.7207001 C22.6968021,12.9661263 23.504125,12.5672027 24.2432708,12.8296762 C24.9821215,13.0922101 25.3728264,13.9165759 25.1158194,14.6710894 L25.1158194,14.6710894 Z" id="Shape" fill="#00BC78" fill-rule="nonzero"></path>
    </g>
</svg>