<?xml version="1.0" encoding="UTF-8"?>
<svg width="40px" height="40px" viewBox="0 0 40 40" version="1.1" xmlns="http://www.w3.org/2000/svg" xmlns:xlink="http://www.w3.org/1999/xlink">
    <!-- Generator: Sketch 55.2 (78181) - https://sketchapp.com -->
    <title>Menu Icon / Marketing</title>
    <desc>Created with Sketch.</desc>
    <g id="Menu-Icon-/-Marketing" stroke="none" stroke-width="1" fill="none" fill-rule="evenodd">
        <path d="M36,18.2506975 C36,17.1896996 35.2388889,16.3091807 34.2222222,16.1068254 L34.2222222,8.62514946 C34.2222222,7.1758482 33.0277778,6 31.5555556,6 C27.9444444,9.06267437 22.7777778,13.0003986 15.5555556,13.0003986 L6.66666667,13.0003986 C5.19444444,13.0003986 4,14.1762468 4,15.625548 L4,20.875847 C4,22.3251482 5.19444444,23.5009964 6.66666667,23.5009964 L8.1,23.5009964 C7.65,26.8425929 8.83888889,29.5989999 9.62777778,32.10383 C9.69444444,32.3061852 9.80555556,32.4921333 9.96111111,32.639798 C12,34.6360054 17.0555556,34.5430313 18.4611111,31.6389597 C18.7222222,31.0975227 18.5777778,30.4576425 18.1166667,30.0748082 C16.1388889,28.4395588 16,28.4340898 16.4555556,27.6574831 C16.7444444,27.1597985 16.6722222,26.5363255 16.2777778,26.1152078 C15.7333333,25.5354872 16.0222222,24.0260263 16.8944444,23.550218 C23.4222222,23.9932119 28.1722222,27.6301378 31.5555556,30.501395 C33.0277778,30.501395 34.2222222,29.3255468 34.2222222,27.8762455 L34.2222222,20.3945696 C35.2388889,20.1922143 36,19.3116954 36,18.2506975 Z M6.66666667,20.875847 L6.66666667,15.625548 L15.5555556,15.625548 L15.5555556,20.875847 L6.66666667,20.875847 Z M12.0555556,30.944389 C11.25,28.4723732 10.3166667,26.1972437 10.8,23.5009964 L13.6666667,23.5009964 C13.2111111,24.6768446 13.2055556,26.0222337 13.7722222,27.121515 C13.1611111,28.8278622 13.9555556,30.0419938 15.2444444,31.1412752 C14.25,31.5295785 12.8111111,31.4147282 12.0555556,30.944389 L12.0555556,30.944389 Z M31.5555556,27.0832316 C27.5666667,23.9330523 23.3111111,21.6524537 18.2222222,21.0399188 L18.2222222,15.4614762 C23.3111111,14.8434723 27.5611111,12.5683427 31.5555556,9.41816336 L31.5555556,27.0832316 Z" id="Bullhorn" fill="#323539" fill-rule="nonzero"></path>
    </g>
</svg>