<?xml version="1.0" encoding="UTF-8"?>
<svg width="40px" height="40px" viewBox="0 0 40 40" version="1.1" xmlns="http://www.w3.org/2000/svg" xmlns:xlink="http://www.w3.org/1999/xlink">
    <!-- Generator: Sketch 55.2 (78181) - https://sketchapp.com -->
    <title>Menu Icon / Resources</title>
    <desc>Created with Sketch.</desc>
    <g id="Menu-Icon-/-Resources" stroke="none" stroke-width="1" fill="none" fill-rule="evenodd">
        <path d="M14,13.5 L14,11.5 C14,11.225 14.225,11 14.5,11 L27.5,11 C27.775,11 28,11.225 28,11.5 L28,13.5 C28,13.775 27.775,14 27.5,14 L14.5,14 C14.225,14 14,13.775 14,13.5 Z M14.5,19 L27.5,19 C27.775,19 28,18.775 28,18.5 L28,16.5 C28,16.225 27.775,16 27.5,16 L14.5,16 C14.225,16 14,16.225 14,16.5 L14,18.5 C14,18.775 14.225,19 14.5,19 Z M33.19375,28.98125 C32.93125,29.79375 32.93125,32.20625 33.19375,33.01875 C33.65,33.10625 34,33.5125 34,34 L34,35 C34,35.55 33.55,36 33,36 L11,36 C8.2375,36 6,33.7625 6,31 L6,9 C6,6.2375 8.2375,4 11,4 L33,4 C33.55,4 34,4.45 34,5 L34,28 C34,28.4875 33.65625,28.8875 33.19375,28.98125 Z M30.625,29 L11,29 C9.9,29 9,29.9 9,31 C9,32.10625 9.89375,33 11,33 L30.625,33 C30.45625,31.91875 30.45625,30.08125 30.625,29 Z M31,7 L11,7 C9.89375,7 9,7.89375 9,9 L9,26.41875 C9.6125,26.15 10.2875,26 11,26 L31,26 L31,7 Z" id="Shape" fill="#323539" fill-rule="nonzero"></path>
    </g>
</svg>