<?xml version="1.0" encoding="UTF-8"?>
<svg width="24px" height="24px" viewBox="0 0 24 24" version="1.1" xmlns="http://www.w3.org/2000/svg" xmlns:xlink="http://www.w3.org/1999/xlink">
    <!-- Generator: Sketch 55.2 (78181) - https://sketchapp.com -->
    <title>Icon / Dashboard / Green</title>
    <desc>Created with Sketch.</desc>
    <g id="Icon-/-Dashboard-/-Green" stroke="none" stroke-width="1" fill="none" fill-rule="evenodd">
        <path d="M12,4 C6.47079861,4 2,8.61055207 2,14.2855612 C2,15.4885577 2.20086806,16.6431958 2.56993056,17.7161531 C3.04086806,19.0852969 4.30038194,20 5.71232639,20 L18.2876736,20 C19.6996181,20 20.9591319,19.0852969 21.4300694,17.7161531 C21.7991319,16.6431958 22,15.4885577 22,14.2855612 C22,8.61055207 17.5292014,4 12,4 Z M19.8588542,17.1443164 C19.6240278,17.8270132 18.9926042,18.2856684 18.2876736,18.2856684 L5.71232639,18.2856684 C5.00739583,18.2856684 4.37597222,17.8270132 4.14114583,17.1443164 C3.82631944,16.2289704 3.66666667,15.2671589 3.66666667,14.2855612 C3.66666667,9.55743457 7.38809028,5.71433163 12,5.71433163 C16.6120486,5.71433163 20.3333333,9.55736314 20.3333333,14.2855612 C20.3333333,15.2671589 20.1736806,16.2289704 19.8588542,17.1443164 Z M15.0093056,9.13842335 L13.4636458,13.7092601 C13.9284028,14.1282356 14.2222222,14.7428592 14.2222222,15.428449 C14.2222222,16.6908399 13.2272917,17.7142245 12,17.7142245 C10.7727083,17.7142245 9.77777778,16.6908399 9.77777778,15.428449 C9.77777778,14.2040948 10.7136458,13.2047108 11.8896875,13.1455307 L13.4351736,8.57522969 C13.5863542,8.12807486 14.06125,7.89167567 14.4960417,8.04721555 C14.9306597,8.20279115 15.1604861,8.69130423 15.0093056,9.13842335 L15.0093056,9.13842335 Z" id="Shape" fill="#00BC78" fill-rule="nonzero"></path>
    </g>
</svg>