<?xml version="1.0" encoding="UTF-8"?>
<svg width="24px" height="24px" viewBox="0 0 24 24" version="1.1" xmlns="http://www.w3.org/2000/svg" xmlns:xlink="http://www.w3.org/1999/xlink">
    <!-- Generator: Sketch 55.2 (78181) - https://sketchapp.com -->
    <title>Icon / Close / Orange</title>
    <desc>Created with Sketch.</desc>
    <g id="Icon-/-Close-/-Orange" stroke="none" stroke-width="1" fill="none" fill-rule="evenodd">
        <path d="M14.323316,12 L20.5188255,18.1955094 C21.1603915,18.8370755 21.1603915,19.8772595 20.5188255,20.5188255 C19.8772595,21.1603915 18.8370755,21.1603915 18.1955094,20.5188255 L12,14.323316 L5.80449055,20.5188255 C5.16292454,21.1603915 4.12274052,21.1603915 3.48117451,20.5188255 C2.8396085,19.8772595 2.8396085,18.8370755 3.48117451,18.1955094 L9.67668396,12 L3.48117451,5.80449055 C2.8396085,5.16292454 2.8396085,4.12274052 3.48117451,3.48117451 C4.12274052,2.8396085 5.16292454,2.8396085 5.80449055,3.48117451 L12,9.67668396 L18.1955094,3.48117451 C18.8370755,2.8396085 19.8772595,2.8396085 20.5188255,3.48117451 C21.1603915,4.12274052 21.1603915,5.16292454 20.5188255,5.80449055 L14.323316,12 Z" id="Combined-Shape" fill="#F75816"></path>
    </g>
</svg>