<?xml version="1.0" encoding="UTF-8"?>
<svg width="90px" height="90px" viewBox="0 0 90 90" version="1.1" xmlns="http://www.w3.org/2000/svg" xmlns:xlink="http://www.w3.org/1999/xlink">
    <!-- Generator: Sketch 55.2 (78181) - https://sketchapp.com -->
    <title>Product Icon / Workers / Green</title>
    <desc>Created with Sketch.</desc>
    <g id="Product-Icon-/-Workers-/-Green" stroke="none" stroke-width="1" fill="none" fill-rule="evenodd">
        <path d="M60.46875,47.8 L50.625,47.8 L50.625,38 C50.625,37.23 49.9921875,36.6 49.21875,36.6 L40.78125,36.6 C40.0078125,36.6 39.375,37.23 39.375,38 L39.375,47.8 L29.53125,47.8 C28.7578125,47.8 28.125,48.43 28.125,49.2 L28.125,57.6 C28.125,58.37 28.7578125,59 29.53125,59 L39.375,59 L39.375,68.8 C39.375,69.57 40.0078125,70.2 40.78125,70.2 L49.21875,70.2 C49.9921875,70.2 50.625,69.57 50.625,68.8 L50.625,59 L60.46875,59 C61.2421875,59 61.875,58.37 61.875,57.6 L61.875,49.2 C61.875,48.43 61.2421875,47.8 60.46875,47.8 Z M81.5625,19.8 L61.875,19.8 L61.875,11.4 C61.875,6.7625 58.0957031,3 53.4375,3 L36.5625,3 C31.9042969,3 28.125,6.7625 28.125,11.4 L28.125,19.8 L8.4375,19.8 C3.77929688,19.8 0,23.5625 0,28.2 L0,78.6 C0,83.2375 3.77929688,87 8.4375,87 L81.5625,87 C86.2207031,87 90,83.2375 90,78.6 L90,28.2 C90,23.5625 86.2207031,19.8 81.5625,19.8 Z M36.5625,11.4 L53.4375,11.4 L53.4375,19.8 L36.5625,19.8 L36.5625,11.4 Z M81.5625,77.55 C81.5625,78.1275 81.0878906,78.6 80.5078125,78.6 L9.4921875,78.6 C8.91210938,78.6 8.4375,78.1275 8.4375,77.55 L8.4375,29.25 C8.4375,28.6725 8.91210938,28.2 9.4921875,28.2 L80.5078125,28.2 C81.0878906,28.2 81.5625,28.6725 81.5625,29.25 L81.5625,77.55 Z" id="medical" fill="#00BC78" fill-rule="nonzero"></path>
    </g>
</svg>