<?xml version="1.0" encoding="UTF-8"?>
<svg width="24px" height="24px" viewBox="0 0 24 24" version="1.1" xmlns="http://www.w3.org/2000/svg" xmlns:xlink="http://www.w3.org/1999/xlink">
    <!-- Generator: Sketch 55.2 (78181) - https://sketchapp.com -->
    <title>Icon / Save / Green</title>
    <desc>Created with Sketch.</desc>
    <g id="Icon-/-Save-/-Green" stroke="none" stroke-width="1" fill="none" fill-rule="evenodd">
        <path d="M20.4351295,6.93512946 L17.0648705,3.56487054 C16.7031953,3.20319262 16.2126576,3 15.7011696,3 L4.92857143,3 C3.8634375,3 3,3.8634375 3,4.92857143 L3,19.0714286 C3,20.1365625 3.8634375,21 4.92857143,21 L19.0714286,21 C20.1365625,21 21,20.1365625 21,19.0714286 L21,8.29883036 C21,7.78734244 20.7968074,7.2968047 20.4351295,6.93512946 Z M13.9285714,4.92857143 L13.9285714,8.14285714 L8.78571429,8.14285714 L8.78571429,4.92857143 L13.9285714,4.92857143 Z M18.8303571,19.0714286 L5.16964286,19.0714286 C5.03650278,19.0714286 4.92857143,18.9634972 4.92857143,18.8303571 L4.92857143,5.16964286 C4.92857143,5.03650278 5.03650278,4.92857143 5.16964286,4.92857143 L6.85714286,4.92857143 L6.85714286,9.10714286 C6.85714286,9.63970982 7.28886161,10.0714286 7.82142857,10.0714286 L14.8928571,10.0714286 C15.4254241,10.0714286 15.8571429,9.63970982 15.8571429,9.10714286 L15.8571429,5.08454464 L19.0008348,8.22823661 C19.0460427,8.27345217 19.0714286,8.33477524 19.0714286,8.39871429 L19.0714286,18.8303571 C19.0714286,18.9634972 18.9634972,19.0714286 18.8303571,19.0714286 Z M12,11.0357143 C10.0504152,11.0357143 8.46428571,12.6218437 8.46428571,14.5714286 C8.46428571,16.5210134 10.0504152,18.1071429 12,18.1071429 C13.9495848,18.1071429 15.5357143,16.5210134 15.5357143,14.5714286 C15.5357143,12.6218437 13.9495848,11.0357143 12,11.0357143 Z M12,16.1785714 C11.1138214,16.1785714 10.3928571,15.4576071 10.3928571,14.5714286 C10.3928571,13.68525 11.1138214,12.9642857 12,12.9642857 C12.8861786,12.9642857 13.6071429,13.68525 13.6071429,14.5714286 C13.6071429,15.4576071 12.8861786,16.1785714 12,16.1785714 Z" id="save" fill="#00BC78" fill-rule="nonzero"></path>
    </g>
</svg>