<?xml version="1.0" encoding="UTF-8"?>
<svg width="24px" height="24px" viewBox="0 0 24 24" version="1.1" xmlns="http://www.w3.org/2000/svg" xmlns:xlink="http://www.w3.org/1999/xlink">
    <!-- Generator: Sketch 55.2 (78181) - https://sketchapp.com -->
    <title>Icon / Shopping Bag / Green</title>
    <desc>Created with Sketch.</desc>
    <g id="Icon-/-Shopping-Bag-/-Green" stroke="none" stroke-width="1" fill="none" fill-rule="evenodd">
        <path d="M17.1428571,7 C17.1428571,4.24296875 14.8357634,2 12,2 C9.16419643,2 6.85714286,4.24296875 6.85714286,7 L3,7 L3,18.875 C3,20.6008984 4.43907589,22 6.21428571,22 L17.7857143,22 C19.5609241,22 21,20.6008984 21,18.875 L21,7 L17.1428571,7 Z M12,3.875 C13.7723571,3.875 15.2142857,5.276875 15.2142857,7 L8.78571429,7 C8.78571429,5.276875 10.2276429,3.875 12,3.875 Z M19.0714286,18.875 C19.0714286,19.5642578 18.4946652,20.125 17.7857143,20.125 L6.21428571,20.125 C5.50533482,20.125 4.92857143,19.5642578 4.92857143,18.875 L4.92857143,8.875 L6.85714286,8.875 L6.85714286,10.4375 C6.85714286,10.9552734 7.28886161,11.375 7.82142857,11.375 C8.35399554,11.375 8.78571429,10.9552734 8.78571429,10.4375 L8.78571429,8.875 L15.2142857,8.875 L15.2142857,10.4375 C15.2142857,10.9552734 15.6460045,11.375 16.1785714,11.375 C16.7111384,11.375 17.1428571,10.9552734 17.1428571,10.4375 L17.1428571,8.875 L19.0714286,8.875 L19.0714286,18.875 Z" id="Bag" fill="#00BC78" fill-rule="nonzero"></path>
    </g>
</svg>