<?xml version="1.0" encoding="UTF-8"?>
<svg width="24px" height="24px" viewBox="0 0 24 24" version="1.1" xmlns="http://www.w3.org/2000/svg" xmlns:xlink="http://www.w3.org/1999/xlink">
    <!-- Generator: Sketch 55.2 (78181) - https://sketchapp.com -->
    <title>Icon / Shopping Bag / White</title>
    <desc>Created with Sketch.</desc>
    <g id="Icon-/-Shopping-Bag-/-White" stroke="none" stroke-width="1" fill="none" fill-rule="evenodd">
        <path d="M16.5714286,7.5 C16.5714286,5.01867187 14.5206786,3 12,3 C9.47928571,3 7.42857143,5.01867187 7.42857143,7.5 L4,7.5 L4,18.1875 C4,19.7408086 5.27917857,21 6.85714286,21 L17.1428571,21 C18.7208214,21 20,19.7408086 20,18.1875 L20,7.5 L16.5714286,7.5 Z M12,4.6875 C13.5754286,4.6875 14.8571429,5.9491875 14.8571429,7.5 L9.14285714,7.5 C9.14285714,5.9491875 10.4245714,4.6875 12,4.6875 Z M18.2857143,18.1875 C18.2857143,18.807832 17.7730357,19.3125 17.1428571,19.3125 L6.85714286,19.3125 C6.22696429,19.3125 5.71428571,18.807832 5.71428571,18.1875 L5.71428571,9.1875 L7.42857143,9.1875 L7.42857143,10.59375 C7.42857143,11.0597461 7.81232143,11.4375 8.28571429,11.4375 C8.75910714,11.4375 9.14285714,11.0597461 9.14285714,10.59375 L9.14285714,9.1875 L14.8571429,9.1875 L14.8571429,10.59375 C14.8571429,11.0597461 15.2408929,11.4375 15.7142857,11.4375 C16.1876786,11.4375 16.5714286,11.0597461 16.5714286,10.59375 L16.5714286,9.1875 L18.2857143,9.1875 L18.2857143,18.1875 Z" id="Bag" fill="#FFFFFF" fill-rule="nonzero"></path>
    </g>
</svg>