<?xml version="1.0" encoding="UTF-8"?>
<svg width="24px" height="24px" viewBox="0 0 24 24" version="1.1" xmlns="http://www.w3.org/2000/svg" xmlns:xlink="http://www.w3.org/1999/xlink">
    <!-- Generator: Sketch 55.2 (78181) - https://sketchapp.com -->
    <title>Icon / Add / Gray</title>
    <desc>Created with Sketch.</desc>
    <g id="Icon-/-Add-/-Gray" stroke="none" stroke-width="1" fill="none" fill-rule="evenodd">
        <path d="M17.1612903,11.3548387 L17.1612903,12.6451613 C17.1612903,12.9112903 16.9435484,13.1290323 16.6774194,13.1290323 L13.1290323,13.1290323 L13.1290323,16.6774194 C13.1290323,16.9435484 12.9112903,17.1612903 12.6451613,17.1612903 L11.3548387,17.1612903 C11.0887097,17.1612903 10.8709677,16.9435484 10.8709677,16.6774194 L10.8709677,13.1290323 L7.32258065,13.1290323 C7.05645161,13.1290323 6.83870968,12.9112903 6.83870968,12.6451613 L6.83870968,11.3548387 C6.83870968,11.0887097 7.05645161,10.8709677 7.32258065,10.8709677 L10.8709677,10.8709677 L10.8709677,7.32258065 C10.8709677,7.05645161 11.0887097,6.83870968 11.3548387,6.83870968 L12.6451613,6.83870968 C12.9112903,6.83870968 13.1290323,7.05645161 13.1290323,7.32258065 L13.1290323,10.8709677 L16.6774194,10.8709677 C16.9435484,10.8709677 17.1612903,11.0887097 17.1612903,11.3548387 Z M22,12 C22,17.5241935 17.5241935,22 12,22 C6.47580645,22 2,17.5241935 2,12 C2,6.47580645 6.47580645,2 12,2 C17.5241935,2 22,6.47580645 22,12 Z M20.0645161,12 C20.0645161,7.54435484 16.4556452,3.93548387 12,3.93548387 C7.54435484,3.93548387 3.93548387,7.54435484 3.93548387,12 C3.93548387,16.4556452 7.54435484,20.0645161 12,20.0645161 C16.4556452,20.0645161 20.0645161,16.4556452 20.0645161,12 Z" id="Shape" fill="#323539" fill-rule="nonzero"></path>
    </g>
</svg>