<?xml version="1.0" encoding="UTF-8"?>
<svg width="90px" height="90px" viewBox="0 0 90 90" version="1.1" xmlns="http://www.w3.org/2000/svg" xmlns:xlink="http://www.w3.org/1999/xlink">
    <!-- Generator: Sketch 55.2 (78181) - https://sketchapp.com -->
    <title>Product Icon / Umbrella / Green</title>
    <desc>Created with Sketch.</desc>
    <g id="Product-Icon-/-Umbrella-/-Green" stroke="none" stroke-width="1" fill="none" fill-rule="evenodd">
        <path d="M89.8791706,43.405625 C85.3599546,24.4489063 67.8566836,12.7639062 48.749976,11.3854687 L48.749976,8.75 C48.749976,6.67890625 47.0710708,5 44.9999782,5 C42.9288857,5 41.2499804,6.67890625 41.2499804,8.75 L41.2499804,11.385 C22.1992104,12.75375 4.76109561,24.339375 0.124535833,43.3896875 C-0.798588625,47.0835937 3.60390879,50.2315625 6.93593808,47.3754687 L7.01250054,47.3070312 C14.7014023,40.1485937 20.9957736,42.9140625 26.5971765,51.6289062 C28.370613,54.4054687 32.0292046,54.2695312 33.7168599,51.6321875 C35.8324836,48.363125 38.0362323,45.345 41.2499804,44.0057813 L41.2499804,71.25 C41.2499804,74.69625 38.4462321,77.5 34.9999841,77.5 C31.5537361,77.5 28.7499878,74.69625 28.7499878,71.25 C28.7499878,69.1789062 27.0710825,67.5 24.99999,67.5 C22.9288974,67.5 21.2499922,69.1789062 21.2499922,71.25 C21.2499922,78.8317188 27.4182698,85 34.9999841,85 C42.5816984,85 48.749976,78.8317188 48.749976,71.25 L48.749976,44.0559375 C52.7952862,45.7476563 54.6896601,49.1478125 56.2799716,51.6275 C57.9685644,54.2734375 61.629031,54.4021875 63.4007487,51.6320312 C69.0596516,42.8885937 75.3674604,40.2126562 82.9869872,47.3070312 L83.0637059,47.3754687 C86.3810477,50.2190625 90.7877639,47.1060937 89.8791706,43.405625 Z M79.0315208,36.3703125 C71.5532439,34.224375 65.002154,37.636875 59.9707507,43.6473438 C56.2195029,38.9495312 51.0887247,35.7771875 44.9999782,35.7771875 C38.8424819,35.7771875 34.1037346,38.7034375 30.2263932,43.5817188 C24.6554589,36.6635938 17.2860883,34.6614063 11.0623419,36.2640625 C17.9699941,24.8085938 31.5676424,18.75 44.9999782,18.75 C58.3795016,18.75 72.1485561,24.8417188 79.0315208,36.3703125 Z" id="umbrella" fill="#00BC78" fill-rule="nonzero"></path>
    </g>
</svg>