<?xml version="1.0" encoding="UTF-8"?>
<svg width="24px" height="24px" viewBox="0 0 24 24" version="1.1" xmlns="http://www.w3.org/2000/svg" xmlns:xlink="http://www.w3.org/1999/xlink">
    <!-- Generator: Sketch 55.2 (78181) - https://sketchapp.com -->
    <title>Icon / Money / Green </title>
    <desc>Created with Sketch.</desc>
    <g id="Icon-/-Money-/-Green-" stroke="none" stroke-width="1" fill="none" fill-rule="evenodd">
        <path d="M12,2 C6.47580645,2 2,6.47580645 2,12 C2,17.5241935 6.47580645,22 12,22 C17.5241935,22 22,17.5241935 22,12 C22,6.47580645 17.5241935,2 12,2 Z M12,20.0645161 C7.54435484,20.0645161 3.93548387,16.4556452 3.93548387,12 C3.93548387,7.54435484 7.54435484,3.93548387 12,3.93548387 C16.4556452,3.93548387 20.0645161,7.54435484 20.0645161,12 C20.0645161,16.4556452 16.4556452,20.0645161 12,20.0645161 Z M11.1653226,18.1491935 C11.1653226,18.3145161 11.3024194,18.4516129 11.4677419,18.4516129 L12.6290323,18.4516129 C12.7943548,18.4516129 12.9314516,18.3145161 12.9314516,18.1491935 L12.9314516,16.9637097 C13.6774194,16.8225806 14.3104839,16.4798387 14.7782258,15.9637097 C15.266129,15.4233871 15.5362903,14.7137097 15.5362903,13.9677419 C15.5362903,13.1491935 15.2096774,12.5 14.5403226,11.983871 C13.9879032,11.5564516 13.2741935,11.2862903 12.641129,11.0443548 C11.6129032,10.6532258 10.9879032,10.375 10.9879032,9.86693548 C10.9879032,9.28225806 11.6330645,9.0766129 12.1814516,9.0766129 C13.1733871,9.0766129 14.0806452,9.82258065 14.0927419,9.83064516 C14.1612903,9.88709677 14.2540323,9.91129032 14.3427419,9.89516129 C14.4314516,9.87903226 14.5080645,9.82258065 14.5524194,9.74193548 L15.266129,8.41935484 C15.3266129,8.30241935 15.3104839,8.16129032 15.2177419,8.06854839 C15.1854839,8.03225806 14.4072581,7.23387097 12.9274194,7.02419355 L12.9274194,5.85080645 C12.9274194,5.68548387 12.7903226,5.5483871 12.625,5.5483871 L11.4637097,5.5483871 C11.2983871,5.5483871 11.1612903,5.68548387 11.1612903,5.85080645 L11.1612903,7.07258065 C9.64112903,7.41532258 8.64112903,8.52419355 8.64112903,9.89919355 C8.64112903,10.7540323 8.97580645,11.4354839 9.66532258,11.9798387 C10.233871,12.4274194 10.9637097,12.7137097 11.608871,12.9677419 C12.5887097,13.3508065 13.1854839,13.6169355 13.1854839,14.0685484 C13.1854839,14.6572581 12.6008065,14.9274194 12.0604839,14.9274194 C10.9314516,14.9274194 9.90725806,14.0080645 9.89112903,13.9959677 C9.8266129,13.9395161 9.74193548,13.9112903 9.65725806,13.9193548 C9.57258065,13.9274194 9.49596774,13.9717742 9.44354839,14.0403226 L8.52822581,15.266129 C8.44354839,15.3830645 8.44758065,15.5403226 8.54435484,15.6491935 C8.58467742,15.6935484 9.5,16.6935484 11.1653226,16.9758065 L11.1653226,18.1491935 Z" id="Shape" fill="#00BC78" fill-rule="nonzero"></path>
    </g>
</svg>