<?xml version="1.0" encoding="UTF-8"?>
<svg width="90px" height="90px" viewBox="0 0 90 90" version="1.1" xmlns="http://www.w3.org/2000/svg" xmlns:xlink="http://www.w3.org/1999/xlink">
    <!-- Generator: Sketch 55.2 (78181) - https://sketchapp.com -->
    <title>Product Icon / Business / Disabled</title>
    <desc>Created with Sketch.</desc>
    <g id="Product-Icon-/-Business-/-Disabled" stroke="none" stroke-width="1" fill="none" fill-rule="evenodd">
        <path d="M89.9916123,28.15809 L83.5642391,2.44419804 C83.2016853,0.974702856 81.8632257,-0.0427005248 80.3505525,0.00137830848 L9.64944751,0.00137830848 C8.13677431,-0.0427005248 6.79831467,0.974702856 6.43576092,2.44419804 L0.00838774274,28.15809 C0.00302824664,28.2651641 0.00302824664,28.3724394 0.00838774274,28.4795136 C-0.00279591425,28.6293028 -0.00279591425,28.7797175 0.00838774274,28.9295067 C0.00838774274,33.9880288 2.38963562,38.7513394 6.43576092,41.7864527 L6.43576092,86.7857635 C6.43576092,88.5609373 7.87457742,90 9.64944751,90 L80.3505525,90 C82.1254226,90 83.5642391,88.5609373 83.5642391,86.7857635 L83.5642391,41.7864527 C87.6103644,38.7513394 89.9916123,33.9880288 89.9916123,28.9295067 C90.0027959,28.7797175 90.0027959,28.6293028 89.9916123,28.4795136 C89.9969718,28.3724394 89.9969718,28.2651641 89.9916123,28.15809 Z M73.9231793,38.5722175 C69.8356072,38.5743594 66.1909699,35.9982033 64.8284463,32.1437432 L83.0179124,32.1437432 C81.6553887,35.9982033 78.0107515,38.5743594 73.9231793,38.5722175 L73.9231793,38.5722175 Z M6.98208764,32.1437432 L25.1715537,32.1437432 C23.8138708,36.0038592 20.1681164,38.5865515 16.0768207,38.5865515 C11.985525,38.5865515 8.33977055,36.0038592 6.98208764,32.1437432 Z M12.1561231,6.42985129 L77.8438769,6.42985129 L82.6644068,25.7152702 L7.33559317,25.7152702 L12.1561231,6.42985129 Z M53.9340487,32.1437432 C52.5763658,36.0038592 48.9306113,38.5865515 44.8393157,38.5865515 C40.74802,38.5865515 37.1022655,36.0038592 35.7445826,32.1437432 L53.9340487,32.1437432 Z M38.5726268,83.571527 L38.5726268,64.2861081 L51.4273732,64.2861081 L51.4273732,83.571527 L38.5726268,83.571527 Z M77.1368659,83.571527 L57.8547464,83.571527 L57.8547464,61.0718716 C57.8547464,59.2966978 56.4159299,57.8576351 54.6410598,57.8576351 L35.3589402,57.8576351 C33.5840701,57.8576351 32.1452536,59.2966978 32.1452536,61.0718716 L32.1452536,83.571527 L12.8631341,83.571527 L12.8631341,44.6792655 C20.0920407,46.1279582 27.3791734,42.4705168 30.5384103,35.8079728 C33.2232276,41.3523753 38.8406067,44.8738892 45,44.8738892 C51.1593933,44.8738892 56.7767724,41.3523753 59.4615897,35.8079728 C62.6208266,42.4705168 69.9079593,46.1279582 77.1368659,44.6792655 L77.1368659,83.571527 Z" id="shop" fill="#BBBCBC" fill-rule="nonzero"></path>
    </g>
</svg>