<?xml version="1.0" encoding="UTF-8"?>
<svg width="24px" height="24px" viewBox="0 0 24 24" version="1.1" xmlns="http://www.w3.org/2000/svg" xmlns:xlink="http://www.w3.org/1999/xlink">
    <!-- Generator: Sketch 55.2 (78181) - https://sketchapp.com -->
    <title>Icon / Calendar / Gray</title>
    <desc>Created with Sketch.</desc>
    <g id="Icon-/-Calendar-/-Gray" stroke="none" stroke-width="1" fill="none" fill-rule="evenodd">
        <path d="M8.94642857,13.25 L7.33928571,13.25 C7.07410714,13.25 6.85714286,13.0390625 6.85714286,12.78125 L6.85714286,11.21875 C6.85714286,10.9609375 7.07410714,10.75 7.33928571,10.75 L8.94642857,10.75 C9.21160714,10.75 9.42857143,10.9609375 9.42857143,11.21875 L9.42857143,12.78125 C9.42857143,13.0390625 9.21160714,13.25 8.94642857,13.25 Z M13.2857143,12.78125 L13.2857143,11.21875 C13.2857143,10.9609375 13.06875,10.75 12.8035714,10.75 L11.1964286,10.75 C10.93125,10.75 10.7142857,10.9609375 10.7142857,11.21875 L10.7142857,12.78125 C10.7142857,13.0390625 10.93125,13.25 11.1964286,13.25 L12.8035714,13.25 C13.06875,13.25 13.2857143,13.0390625 13.2857143,12.78125 Z M17.1428571,12.78125 L17.1428571,11.21875 C17.1428571,10.9609375 16.9258929,10.75 16.6607143,10.75 L15.0535714,10.75 C14.7883929,10.75 14.5714286,10.9609375 14.5714286,11.21875 L14.5714286,12.78125 C14.5714286,13.0390625 14.7883929,13.25 15.0535714,13.25 L16.6607143,13.25 C16.9258929,13.25 17.1428571,13.0390625 17.1428571,12.78125 Z M13.2857143,16.53125 L13.2857143,14.96875 C13.2857143,14.7109375 13.06875,14.5 12.8035714,14.5 L11.1964286,14.5 C10.93125,14.5 10.7142857,14.7109375 10.7142857,14.96875 L10.7142857,16.53125 C10.7142857,16.7890625 10.93125,17 11.1964286,17 L12.8035714,17 C13.06875,17 13.2857143,16.7890625 13.2857143,16.53125 Z M9.42857143,16.53125 L9.42857143,14.96875 C9.42857143,14.7109375 9.21160714,14.5 8.94642857,14.5 L7.33928571,14.5 C7.07410714,14.5 6.85714286,14.7109375 6.85714286,14.96875 L6.85714286,16.53125 C6.85714286,16.7890625 7.07410714,17 7.33928571,17 L8.94642857,17 C9.21160714,17 9.42857143,16.7890625 9.42857143,16.53125 Z M17.1428571,16.53125 L17.1428571,14.96875 C17.1428571,14.7109375 16.9258929,14.5 16.6607143,14.5 L15.0535714,14.5 C14.7883929,14.5 14.5714286,14.7109375 14.5714286,14.96875 L14.5714286,16.53125 C14.5714286,16.7890625 14.7883929,17 15.0535714,17 L16.6607143,17 C16.9258929,17 17.1428571,16.7890625 17.1428571,16.53125 Z M21,6.375 L21,20.125 C21,21.1601562 20.1361607,22 19.0714286,22 L4.92857143,22 C3.86383929,22 3,21.1601562 3,20.125 L3,6.375 C3,5.33984375 3.86383929,4.5 4.92857143,4.5 L6.85714286,4.5 L6.85714286,2.46875 C6.85714286,2.2109375 7.07410714,2 7.33928571,2 L8.94642857,2 C9.21160714,2 9.42857143,2.2109375 9.42857143,2.46875 L9.42857143,4.5 L14.5714286,4.5 L14.5714286,2.46875 C14.5714286,2.2109375 14.7883929,2 15.0535714,2 L16.6607143,2 C16.9258929,2 17.1428571,2.2109375 17.1428571,2.46875 L17.1428571,4.5 L19.0714286,4.5 C20.1361607,4.5 21,5.33984375 21,6.375 Z M19.0714286,19.890625 L19.0714286,8.25 L4.92857143,8.25 L4.92857143,19.890625 C4.92857143,20.0195312 5.03705357,20.125 5.16964286,20.125 L18.8303571,20.125 C18.9629464,20.125 19.0714286,20.0195312 19.0714286,19.890625 Z" id="calendar" fill="#323539" fill-rule="nonzero"></path>
    </g>
</svg>