<?xml version="1.0" encoding="UTF-8"?>
<svg width="24px" height="24px" viewBox="0 0 24 24" version="1.1" xmlns="http://www.w3.org/2000/svg" xmlns:xlink="http://www.w3.org/1999/xlink">
    <!-- Generator: Sketch 55.2 (78181) - https://sketchapp.com -->
    <title>Icon / Question / Orange</title>
    <desc>Created with Sketch.</desc>
    <g id="Icon-/-Question-/-Orange" stroke="none" stroke-width="1" fill="none" fill-rule="evenodd">
        <path d="M12,2 C6.47754032,2 2,6.47915323 2,12 C2,17.5240726 6.47754032,22 12,22 C17.5224597,22 22,17.5240726 22,12 C22,6.47915323 17.5224597,2 12,2 Z M12,20.0645161 C7.54306452,20.0645161 3.93548387,16.4584274 3.93548387,12 C3.93548387,7.54455645 7.54322581,3.93548387 12,3.93548387 C16.4552823,3.93548387 20.0645161,7.54318548 20.0645161,12 C20.0645161,16.4568548 16.4584274,20.0645161 12,20.0645161 Z M16.3243548,9.77419355 C16.3243548,12.4779032 13.4041532,12.5195161 13.4041532,13.5186694 L13.4041532,13.7741935 C13.4041532,14.0414113 13.1875,14.2580645 12.9202823,14.2580645 L11.0796774,14.2580645 C10.8124597,14.2580645 10.5958065,14.0414113 10.5958065,13.7741935 L10.5958065,13.4250403 C10.5958065,11.9837097 11.6885484,11.4075403 12.5143145,10.9445565 C13.2224194,10.5475806 13.6564113,10.2775806 13.6564113,9.75185484 C13.6564113,9.05645161 12.7693548,8.59487903 12.0522177,8.59487903 C11.1171774,8.59487903 10.6855242,9.0375 10.07875,9.80330645 C9.91516129,10.0097581 9.61665323,10.0481048 9.40673387,9.88895161 L8.28479839,9.03822581 C8.07887097,8.88209677 8.03274194,8.59201613 8.17818548,8.37842742 C9.1308871,6.97947581 10.3443548,6.19354839 12.233629,6.19354839 C14.2122984,6.19354839 16.3243548,7.73806452 16.3243548,9.77419355 L16.3243548,9.77419355 Z M13.6935484,16.516129 C13.6935484,17.4499597 12.9338306,18.2096774 12,18.2096774 C11.0661694,18.2096774 10.3064516,17.4499597 10.3064516,16.516129 C10.3064516,15.5822984 11.0661694,14.8225806 12,14.8225806 C12.9338306,14.8225806 13.6935484,15.5822984 13.6935484,16.516129 Z" id="question" fill="#F75816" fill-rule="nonzero"></path>
    </g>
</svg>