<?xml version="1.0" encoding="UTF-8"?>
<svg width="90px" height="90px" viewBox="0 0 90 90" version="1.1" xmlns="http://www.w3.org/2000/svg" xmlns:xlink="http://www.w3.org/1999/xlink">
    <!-- Generator: Sketch 55.2 (78181) - https://sketchapp.com -->
    <title>Product Icon / General Liability / Gray</title>
    <desc>Created with Sketch.</desc>
    <g id="Product-Icon-/-General-Liability-/-Gray" stroke="none" stroke-width="1" fill="none" fill-rule="evenodd">
        <path d="M81.5625,17.2857143 L61.875,17.2857143 L61.875,14.4642857 C61.875,9.78953125 58.0974609,6 53.4375,6 L36.5625,6 C31.9025391,6 28.125,9.78953125 28.125,14.4642857 L28.125,17.2857143 L8.4375,17.2857143 C3.77753906,17.2857143 0,21.0752455 0,25.75 L0,76.5357143 C0,81.2104688 3.77753906,85 8.4375,85 L81.5625,85 C86.2224609,85 90,81.2104688 90,76.5357143 L90,25.75 C90,21.0752455 86.2224609,17.2857143 81.5625,17.2857143 Z M36.5625,14.4642857 L53.4375,14.4642857 L53.4375,17.2857143 L36.5625,17.2857143 L36.5625,14.4642857 Z M16.875,76.5357143 L9.4921875,76.5357143 C8.90969968,76.5357143 8.4375,76.0620156 8.4375,75.4776786 L8.4375,26.8080357 C8.4375,26.2236987 8.90969968,25.75 9.4921875,25.75 L16.875,25.75 L16.875,76.5357143 Z M64.6875,76.5357143 L25.3125,76.5357143 L25.3125,25.75 L64.6875,25.75 L64.6875,76.5357143 Z M80.5078125,76.5357143 L73.125,76.5357143 L73.125,25.75 L80.5078125,25.75 C81.0903003,25.75 81.5625,26.2236987 81.5625,26.8080357 L81.5625,75.4776786 C81.5625,76.0620156 81.0903003,76.5357143 80.5078125,76.5357143 Z" id="Shape" fill="#323539" fill-rule="nonzero"></path>
    </g>
</svg>