<?xml version="1.0" encoding="UTF-8"?>
<svg width="90px" height="90px" viewBox="0 0 90 90" version="1.1" xmlns="http://www.w3.org/2000/svg" xmlns:xlink="http://www.w3.org/1999/xlink">
    <!-- Generator: Sketch 55.2 (78181) - https://sketchapp.com -->
    <title>Product Icon / Auto / Green</title>
    <desc>Created with Sketch.</desc>
    <g id="Product-Icon-/-Auto-/-Green" stroke="none" stroke-width="1" fill="none" fill-rule="evenodd">
        <path d="M26.7032967,55.5938835 C26.7032967,58.5847793 21.4543929,58.3016486 18.3956044,58.3016486 C15.3368159,58.3016486 12.8571429,55.8770142 12.8571429,52.8861184 C12.8571429,49.8952226 15.3368159,47.4705882 18.3956044,47.4705882 C21.4543929,47.4705882 26.7032967,52.6028185 26.7032967,55.5938835 Z M71.6043956,47.4705882 C68.5456071,47.4705882 63.2967033,52.6029878 63.2967033,55.5938835 C63.2967033,58.5847793 68.5456071,58.3016486 71.6043956,58.3016486 C74.6631841,58.3016486 77.1428571,55.8770142 77.1428571,52.8861184 C77.1428571,49.8952226 74.6631841,47.4705882 71.6043956,47.4705882 Z M89.8901381,30.1100694 L88.483888,34.297569 C88.1967603,35.1525047 87.390708,35.7291621 86.4827942,35.7291704 L81.5626769,35.7291704 C84.9779309,38.2756936 87.1875013,42.3295423 87.1875013,46.8958361 L87.1875013,59.458335 C87.1875013,62.11984 86.1140051,64.5314908 84.3750012,66.2937303 L84.3750012,74.8125004 C84.3750012,77.1252215 82.4862316,79 80.156251,79 L74.5312509,79 C72.2012703,79 70.3125008,77.1252215 70.3125008,74.8125004 L70.3125008,69.2291675 L19.6874992,69.2291675 L19.6874992,74.8125004 C19.6874992,77.1252215 17.7987297,79 15.4687491,79 L9.84374895,79 C7.51376841,79 5.62499882,77.1252215 5.62499882,74.8125004 L5.62499882,66.2937303 C3.88599487,64.5314908 2.81249874,62.11984 2.81249874,59.458335 L2.81249874,46.8958361 C2.81249874,42.3295423 5.02206912,38.2758681 8.43732313,35.7291704 L3.51720579,35.7291704 C2.60929198,35.7291621 1.80323973,35.1525047 1.51611198,34.297569 L0.109861941,30.1100694 C-0.345411511,28.7541919 0.671131489,27.3541712 2.11095575,27.3541712 L10.2761708,27.3541712 L11.4264834,24.6897 C14.7455153,16.9872276 22.37485,11.993813 30.8148043,12 L59.1851957,12 C67.6251701,11.9937742 75.2544996,16.9872993 78.5733408,24.6898745 L79.7238292,27.3541712 L87.8890442,27.3541712 C89.3288685,27.3541712 90.3454115,28.7541919 89.8901381,30.1100694 Z M16.8131868,32.6911765 L73.1868132,32.6911765 L71.0324556,27.6455688 C69.0246785,22.9333739 64.409066,19.8784927 59.3030377,19.8823529 L30.6971395,19.8823529 C25.591089,19.8785626 20.9754596,22.933409 18.9675444,27.6455688 L16.8131868,32.6911765 Z M80.1098901,46.6700368 C80.1098901,42.7651314 76.9596631,39.5882353 73.0877541,39.5882353 L16.9120704,39.5882353 C13.0401614,39.5882353 9.89010989,42.7651314 9.89010989,46.6700368 L9.89010989,59.4172794 C9.89010989,60.9791707 11.1498496,62.25 12.698543,62.25 L77.301457,62.25 C78.8499749,62.25 80.1098901,60.9791707 80.1098901,59.4172794 L80.1098901,46.6700368 L80.1098901,46.6700368 Z M58.3021978,49.4411765 L32.6868132,49.4411765 C32.1132867,49.4411765 31.6483516,49.9043642 31.6483516,50.4757353 L31.6483516,52.2 C31.6483516,54.4855129 33.5080632,56.3382353 35.8021978,56.3382353 L55.1868132,56.3382353 C57.4809478,56.3382353 59.3406593,54.4855129 59.3406593,52.2 L59.3406593,50.4757353 C59.3406593,49.9043642 58.8757243,49.4411765 58.3021978,49.4411765 Z" id="auto" fill="#00BC78" fill-rule="nonzero"></path>
    </g>
</svg>