<?xml version="1.0" encoding="UTF-8"?>
<svg width="24px" height="24px" viewBox="0 0 24 24" version="1.1" xmlns="http://www.w3.org/2000/svg" xmlns:xlink="http://www.w3.org/1999/xlink">
    <!-- Generator: Sketch 55.2 (78181) - https://sketchapp.com -->
    <title>Icon / Documents / Green </title>
    <desc>Created with Sketch.</desc>
    <g id="Icon-/-Documents-/-Green-" stroke="none" stroke-width="1" fill="none" fill-rule="evenodd">
        <path d="M19.4492188,5.82737747 L16.171875,2.5506737 C15.8203125,2.19917985 15.34375,2 14.8476562,2 L6.875,2 C5.83984375,2.00390549 5,2.84358524 5,3.87853935 L5,20.1253661 C5,21.1603202 5.83984375,22 6.875,22 L18.125,22 C19.1601562,22 20,21.1603202 20,20.1253661 L20,7.15524312 C20,6.65924624 19.8007812,6.17887131 19.4492188,5.82737747 Z M17.9726562,7.00292912 L15,7.00292912 L15,4.03085335 L17.9726562,7.00292912 Z M6.875,20.1253661 L6.875,3.87853935 L13.125,3.87853935 L13.125,7.94024605 C13.125,8.45967584 13.5429688,8.87756298 14.0625,8.87756298 L18.125,8.87756298 L18.125,20.1253661 L6.875,20.1253661 Z" id="document" fill="#00BC78" fill-rule="nonzero"></path>
    </g>
</svg>