<?xml version="1.0" encoding="UTF-8"?>
<svg width="24px" height="24px" viewBox="0 0 24 24" version="1.1" xmlns="http://www.w3.org/2000/svg" xmlns:xlink="http://www.w3.org/1999/xlink">
    <!-- Generator: Sketch 55.2 (78181) - https://sketchapp.com -->
    <title>Icon / Arrow / Down</title>
    <desc>Created with Sketch.</desc>
    <g id="Icon-/-Arrow-/-Down" stroke="none" stroke-width="1" fill="none" fill-rule="evenodd">
        <path d="M4.1587634,10.2633373 L5.05296912,11.1472223 C5.2646085,11.3564189 5.60776598,11.3564189 5.81945052,11.1472223 L10.8257255,6.2217681 L10.8257255,21.4642851 C10.8257255,21.7601337 11.0683927,22 11.3676958,22 L12.632293,22 C12.931596,22 13.1742632,21.7601337 13.1742632,21.4642851 L13.1742632,6.2217681 L18.1805834,11.1472223 C18.3922227,11.3564189 18.7353802,11.3564189 18.9470648,11.1472223 L19.8412705,10.2633373 C20.0529098,10.0541407 20.0529098,9.71494388 19.8412705,9.50570257 L12.3832125,2.1568975 C12.1715731,1.94770083 11.8284156,1.94770083 11.6167311,2.1568975 L4.1587634,9.50574722 C3.94707887,9.71494388 3.94707887,10.0541407 4.1587634,10.2633373 Z" id="Arrow" fill="#F75816" fill-rule="nonzero" transform="translate(12.000000, 12.000000) scale(1, -1) translate(-12.000000, -12.000000) "></path>
    </g>
</svg>