<?xml version="1.0" encoding="UTF-8"?>
<svg width="24px" height="24px" viewBox="0 0 24 24" version="1.1" xmlns="http://www.w3.org/2000/svg" xmlns:xlink="http://www.w3.org/1999/xlink">
    <!-- Generator: Sketch 55.2 (78181) - https://sketchapp.com -->
    <title>Icon / Support / Gray</title>
    <desc>Created with Sketch.</desc>
    <g id="Icon-/-Support-/-Gray" stroke="none" stroke-width="1" fill="none" fill-rule="evenodd">
        <path d="M12,22 C17.5228629,22 22,17.5228629 22,12 C22,6.4771371 17.5228629,2 12,2 C6.4771371,2 2,6.4771371 2,12 C2,17.5228629 6.4771371,22 12,22 Z M7.83072581,18.9064516 L9.98439516,16.7527823 C11.2668952,17.297379 12.7314919,17.2980242 14.0156048,16.7527823 L16.1692742,18.9064516 C13.6202016,20.4515726 10.3797984,20.4515726 7.83072581,18.9064516 Z M15.2258065,12 C15.2258065,13.7787097 13.7787097,15.2258065 12,15.2258065 C10.2212903,15.2258065 8.77419355,13.7787097 8.77419355,12 C8.77419355,10.2212903 10.2212903,8.77419355 12,8.77419355 C13.7787097,8.77419355 15.2258065,10.2212903 15.2258065,12 Z M18.9064516,16.1692742 L16.7527823,14.0156048 C17.2973387,12.7331048 17.2980242,11.2685081 16.7527823,9.98439516 L18.9064516,7.83072581 C20.4515726,10.3797984 20.4515726,13.6202016 18.9064516,16.1692742 Z M16.1692339,5.09354839 L14.0155645,7.24721774 C12.7330645,6.70266129 11.2684677,6.70197581 9.98439516,7.24721774 L7.83072581,5.09354839 C10.3797984,3.54842742 13.6202016,3.54842742 16.1692339,5.09354839 Z M5.09354839,7.83072581 L7.24721774,9.98439516 C6.70262097,11.2668952 6.70197581,12.7314919 7.24721774,14.0156048 L5.09354839,16.1692742 C3.54842742,13.6202016 3.54842742,10.3797984 5.09354839,7.83072581 Z" id="Shape" fill="#323539" fill-rule="nonzero"></path>
    </g>
</svg>