<?xml version="1.0" encoding="UTF-8"?>
<svg width="90px" height="90px" viewBox="0 0 90 90" version="1.1" xmlns="http://www.w3.org/2000/svg" xmlns:xlink="http://www.w3.org/1999/xlink">
    <!-- Generator: Sketch 55.2 (78181) - https://sketchapp.com -->
    <title>Product Icon / Inland Marine / Green</title>
    <desc>Created with Sketch.</desc>
    <g id="Product-Icon-/-Inland-Marine-/-Green" stroke="none" stroke-width="1" fill="none" fill-rule="evenodd">
        <path d="M87.75,60.75 L85.5,60.75 L85.5,44.4234375 C85.5,41.7515625 84.4171875,39.15 82.5328125,37.265625 L70.734375,25.4671875 C68.85,23.5828125 66.234375,22.5 63.5765625,22.5 L58.5,22.5 L58.5,16.875 C58.5,12.5296875 54.9703125,9 50.625,9 L16.875,9 C12.5296875,9 9,12.5296875 9,16.875 L9,22.5 L1.125,22.5 C0.50625,22.5 0,23.00625 0,23.625 L0,25.875 C0,26.49375 0.50625,27 1.125,27 L34.875,27 C35.49375,27 36,26.49375 36,25.875 L36,23.625 C36,23.00625 35.49375,22.5 34.875,22.5 L15.75,22.5 L15.75,16.875 C15.75,16.25625 16.25625,15.75 16.875,15.75 L50.625,15.75 C51.24375,15.75 51.75,16.25625 51.75,16.875 L51.75,60.75 L34.1296875,60.75 C31.7953125,56.728125 27.4921875,54 22.5,54 C20.025,54 17.746875,54.7171875 15.75,55.8703125 L15.75,49.5 L9,49.5 L9,67.5 C9,74.953125 15.046875,81 22.5,81 C29.953125,81 36,74.953125 36,67.5 L54,67.5 C54,74.953125 60.046875,81 67.5,81 C74.953125,81 81,74.953125 81,67.5 L87.75,67.5 C88.9875,67.5 90,66.4875 90,65.25 L90,63 C90,61.7625 88.9875,60.75 87.75,60.75 Z M22.5,74.25 C18.7734375,74.25 15.75,71.2265625 15.75,67.5 C15.75,63.7734375 18.7734375,60.75 22.5,60.75 C26.2265625,60.75 29.25,63.7734375 29.25,67.5 C29.25,71.2265625 26.2265625,74.25 22.5,74.25 Z M58.5,29.25 L63.5765625,29.25 C64.4625,29.25 65.334375,29.615625 65.9671875,30.234375 L76.2328125,40.5 L58.5,40.5 L58.5,29.25 Z M67.5,74.25 C63.7734375,74.25 60.75,71.2265625 60.75,67.5 C60.75,63.7734375 63.7734375,60.75 67.5,60.75 C71.2265625,60.75 74.25,63.7734375 74.25,67.5 C74.25,71.2265625 71.2265625,74.25 67.5,74.25 Z M78.75,60.0609375 C76.33125,56.41875 72.196875,54 67.5,54 C64.0265625,54 60.890625,55.35 58.5,57.5015625 L58.5,47.25 L78.75,47.25 L78.75,60.0609375 Z M36,43.875 L36,41.625 C36,41.00625 35.49375,40.5 34.875,40.5 L1.125,40.5 C0.50625,40.5 0,41.00625 0,41.625 L0,43.875 C0,44.49375 0.50625,45 1.125,45 L34.875,45 C35.49375,45 36,44.49375 36,43.875 Z M39.375,36 C39.99375,36 40.5,35.49375 40.5,34.875 L40.5,32.625 C40.5,32.00625 39.99375,31.5 39.375,31.5 L5.625,31.5 C5.00625,31.5 4.5,32.00625 4.5,32.625 L4.5,34.875 C4.5,35.49375 5.00625,36 5.625,36 L39.375,36 Z" id="Shape" fill="#00BC78" fill-rule="nonzero"></path>
    </g>
</svg>