<?xml version="1.0" encoding="UTF-8"?>
<svg width="24px" height="24px" viewBox="0 0 24 24" version="1.1" xmlns="http://www.w3.org/2000/svg" xmlns:xlink="http://www.w3.org/1999/xlink">
    <!-- Generator: Sketch 55.2 (78181) - https://sketchapp.com -->
    <title>Icon / Download / Green </title>
    <desc>Created with Sketch.</desc>
    <g id="Icon-/-Download-/-Green-" stroke="none" stroke-width="1" fill="none" fill-rule="evenodd">
        <g id="upload" transform="translate(2.000000, 3.000000)" fill="#00BC78" fill-rule="nonzero">
            <path d="M18.3333333,10.1244236 L13.3333333,10.1244236 L13.3333333,8.99934121 L15.5555556,8.99934121 C17.0347222,8.99934121 17.7847222,7.18163004 16.7326389,6.11983358 L11.1770833,0.494421833 C10.5243056,-0.166564047 9.47222222,-0.163048165 8.81944444,0.494421833 L3.26388889,6.11983358 C2.21875,7.17811416 2.96180556,8.99934121 4.44444444,8.99934121 L6.66666667,8.99934121 L6.66666667,10.1244236 L1.66666667,10.1244236 C0.746527778,10.1244236 0,10.8803383 0,11.8120471 L0,16.3123765 C0,17.2440853 0.746527778,18 1.66666667,18 L18.3333333,18 C19.2534722,18 20,17.2440853 20,16.3123765 L20,11.8120471 C20,10.8803383 19.2534722,10.1244236 18.3333333,10.1244236 Z M4.44444444,7.31171769 L10,1.68630595 L15.5555556,7.31171769 L11.6666667,7.31171769 L11.6666667,12.9371294 L8.33333333,12.9371294 L8.33333333,7.31171769 L4.44444444,7.31171769 Z M18.3333333,16.3123765 L1.66666667,16.3123765 L1.66666667,11.8120471 L6.66666667,11.8120471 L6.66666667,12.9371294 C6.66666667,13.8688383 7.41319444,14.624753 8.33333333,14.624753 L11.6666667,14.624753 C12.5868056,14.624753 13.3333333,13.8688383 13.3333333,12.9371294 L13.3333333,11.8120471 L18.3333333,11.8120471 L18.3333333,16.3123765 Z M16.9444444,14.0622118 C16.9444444,14.5298241 16.5729167,14.9060235 16.1111111,14.9060235 C15.6493056,14.9060235 15.2777778,14.5298241 15.2777778,14.0622118 C15.2777778,13.5945994 15.6493056,13.2184 16.1111111,13.2184 C16.5729167,13.2184 16.9444444,13.5945994 16.9444444,14.0622118 Z" id="Shape" transform="translate(10.000000, 9.000000) scale(1, -1) translate(-10.000000, -9.000000) "></path>
        </g>
    </g>
</svg>