<?xml version="1.0" encoding="UTF-8"?>
<svg width="24px" height="24px" viewBox="0 0 24 24" version="1.1" xmlns="http://www.w3.org/2000/svg" xmlns:xlink="http://www.w3.org/1999/xlink">
    <!-- Generator: Sketch 55.2 (78181) - https://sketchapp.com -->
    <title>Icon / Sync / Green</title>
    <desc>Created with Sketch.</desc>
    <g id="Icon-/-Sync-/-Green" stroke="none" stroke-width="1" fill="none" fill-rule="evenodd">
        <path d="M20.578125,3 L19.6039102,3 C19.3669922,3 19.1765156,3.19015323 19.1821406,3.42109274 L19.2646523,6.79967137 C17.7027656,4.50953831 15.0324375,3 12,3 C7.73951953,3 4.19295703,5.97925 3.43228125,9.91735484 C3.38348437,10.1699214 3.58373437,10.4032258 3.84737109,10.4032258 L4.85199609,10.4032258 C5.05147266,10.4032258 5.22261328,10.266746 5.264625,10.076627 C5.93347266,7.04874194 8.69239453,4.78225806 12,4.78225806 C14.7965039,4.78225806 17.2010859,6.40281048 18.2815781,8.73414113 L13.8381797,8.63101008 C13.601332,8.62552621 13.40625,8.81118952 13.40625,9.04219758 L13.40625,9.99193548 C13.40625,10.2190706 13.5951445,10.4032258 13.828125,10.4032258 L20.578125,10.4032258 C20.8111055,10.4032258 21,10.2190706 21,9.99193548 L21,3.41129032 C21,3.18415524 20.8111055,3 20.578125,3 Z M20.1526289,12.5967742 L19.1480039,12.5967742 C18.9485273,12.5967742 18.7773867,12.733254 18.735375,12.923373 C18.0665273,15.9512581 15.3076055,18.2177419 12,18.2177419 C9.20346094,18.2177419 6.79891406,16.5971895 5.71842188,14.2658589 L10.1618203,14.3689899 C10.398668,14.3744738 10.59375,14.1888105 10.59375,13.9578024 L10.59375,13.0080645 C10.59375,12.7809294 10.4048555,12.5967742 10.171875,12.5967742 L3.421875,12.5967742 C3.18889453,12.5967742 3,12.7809294 3,13.0080645 L3,19.5887097 C3,19.8158448 3.18889453,20 3.421875,20 L4.39608984,20 C4.63300781,20 4.82348438,19.8098468 4.81785938,19.5789073 L4.73534766,16.2003286 C6.29723438,18.4904617 8.9675625,20 12,20 C16.2604805,20 19.807043,17.02075 20.5677188,13.0826452 C20.6165156,12.8300786 20.4162656,12.5967742 20.1526289,12.5967742 Z" id="sync" fill="#00BC78" fill-rule="nonzero"></path>
    </g>
</svg>