<?xml version="1.0" encoding="UTF-8"?>
<svg width="24px" height="24px" viewBox="0 0 24 24" version="1.1" xmlns="http://www.w3.org/2000/svg" xmlns:xlink="http://www.w3.org/1999/xlink">
    <!-- Generator: Sketch 55.2 (78181) - https://sketchapp.com -->
    <title>Icon / Alert / White</title>
    <desc>Created with Sketch.</desc>
    <g id="Icon-/-Alert-/-White" stroke="none" stroke-width="1" fill="none" fill-rule="evenodd">
        <path d="M10.7733499,10.3970314 L10.979225,13.8970314 C10.9908812,14.0952502 11.1550375,14.2500002 11.3535688,14.2500002 L12.6463815,14.2500002 C12.8449278,14.2500002 13.0090607,14.0952347 13.0207253,13.8970314 L13.2266004,10.3970314 C13.2392566,10.1816252 13.0680066,10.0000002 12.8522566,10.0000002 L11.1476625,10.0000002 C10.9319437,10.0000002 10.7606937,10.1816252 10.7733499,10.3970314 L10.7733499,10.3970314 Z M13.3125066,16.0000002 C13.3125066,16.7248752 12.7248815,17.3125002 12.0000064,17.3125002 C11.2751313,17.3125002 10.6875062,16.7248752 10.6875062,16.0000002 C10.6875062,15.2751252 11.2751313,14.6875002 12.0000064,14.6875002 C12.7248815,14.6875002 13.3125066,15.2751252 13.3125066,16.0000002 Z M13.2992879,4.7495314 C12.7232565,3.75106265 11.2778188,3.74925015 10.7007249,4.7495314 L3.2024111,17.7504064 C2.6267235,18.7483127 3.34744237,20 4.50169258,20 L19.4981327,20 C20.6501642,20 21.3742268,18.7502189 20.7974142,17.7504064 L13.2992879,4.7495314 Z M4.66222386,18.2188127 L11.8376001,5.78150015 C11.9097564,5.65643765 12.0902564,5.65643765 12.1624127,5.78150015 L19.3377889,18.2187814 C19.409914,18.3437814 19.3196952,18.4999689 19.1753827,18.4999689 L4.82463014,18.4999689 C4.68034886,18.4999689 4.59013009,18.3438127 4.66222386,18.2188127 L4.66222386,18.2188127 Z" id="Shape" fill="#FFFFFF" fill-rule="nonzero"></path>
    </g>
</svg>