<?xml version="1.0" encoding="UTF-8"?>
<svg width="24px" height="24px" viewBox="0 0 24 24" version="1.1" xmlns="http://www.w3.org/2000/svg" xmlns:xlink="http://www.w3.org/1999/xlink">
    <!-- Generator: Sketch 55.2 (78181) - https://sketchapp.com -->
    <title>Icon / Delete</title>
    <desc>Created with Sketch.</desc>
    <g id="Icon-/-Delete" stroke="none" stroke-width="1" fill="none" fill-rule="evenodd">
        <path d="M10.2857143,9.34375 L10.2857143,17.78125 C10.2857143,18.0401172 10.0818281,18.25 9.83035714,18.25 L8.91964286,18.25 C8.66817187,18.25 8.46428571,18.0401172 8.46428571,17.78125 L8.46428571,9.34375 C8.46428571,9.08488281 8.66817187,8.875 8.91964286,8.875 L9.83035714,8.875 C10.0818281,8.875 10.2857143,9.08488281 10.2857143,9.34375 Z M14.0803571,8.875 L13.1696429,8.875 C12.9181719,8.875 12.7142857,9.08488281 12.7142857,9.34375 L12.7142857,17.78125 C12.7142857,18.0401172 12.9181719,18.25 13.1696429,18.25 L14.0803571,18.25 C14.3318281,18.25 14.5357143,18.0401172 14.5357143,17.78125 L14.5357143,9.34375 C14.5357143,9.08488281 14.3318281,8.875 14.0803571,8.875 Z M19.0892857,5.125 C19.5922656,5.125 20,5.54472656 20,6.0625 L20,6.53125 C20,6.79011719 19.7961138,7 19.5446429,7 L18.7857143,7 L18.7857143,20.125 C18.7857143,21.1605469 17.9702455,22 16.9642857,22 L6.03571429,22 C5.02975446,22 4.21428571,21.1605469 4.21428571,20.125 L4.21428571,7 L3.45535714,7 C3.20388616,7 3,6.79011719 3,6.53125 L3,6.0625 C3,5.54472656 3.40773437,5.125 3.91071429,5.125 L6.73434598,5.125 L8.02520759,2.9103125 C8.35438635,2.34555135 8.94727936,2 9.58708259,2 L13.4129554,2 C14.0527586,2 14.6456516,2.34555135 14.9748304,2.9103125 L16.265654,5.125 L19.0892857,5.125 Z M8.85851116,5.125 L14.1415268,5.125 L13.4792857,3.98878906 C13.4381384,3.91819392 13.3640267,3.875 13.2840513,3.875 L9.71602455,3.875 C9.63604915,3.875 9.56193752,3.91819392 9.52079018,3.98878906 L8.85851116,5.125 Z M16.9642857,7 L6.03571429,7 L6.03571429,19.890625 C6.03571429,20.0200667 6.13764945,20.125 6.26339286,20.125 L16.7366071,20.125 C16.8623505,20.125 16.9642857,20.0200667 16.9642857,19.890625 L16.9642857,7 Z" id="Shape" fill="#323539" fill-rule="nonzero"></path>
    </g>
</svg>