<?xml version="1.0" encoding="UTF-8"?>
<svg width="24px" height="24px" viewBox="0 0 24 24" version="1.1" xmlns="http://www.w3.org/2000/svg" xmlns:xlink="http://www.w3.org/1999/xlink">
    <!-- Generator: Sketch 55.2 (78181) - https://sketchapp.com -->
    <title>Icon / Edit</title>
    <desc>Created with Sketch.</desc>
    <g id="Icon-/-Edit" stroke="none" stroke-width="1" fill="none" fill-rule="evenodd">
        <path d="M21.2265321,4.9024466 L19.0975422,2.77346491 C18.0662517,1.74217836 16.3982175,1.74217836 15.366927,2.77346491 L2.49532766,15.6450148 L2.01093364,20.0162634 C1.88592873,21.1569289 2.85081037,22.113994 3.98366737,21.9889896 L8.35102641,21.5045974 L21.2265321,8.62914117 C22.2578226,7.59785462 22.2578226,5.92982676 21.2265321,4.9024466 Z M7.49161765,19.7115651 L3.88600728,20.1139231 L4.28836684,16.5083266 L13.4840405,7.30878188 L16.6911977,10.5159268 L7.49161765,19.7115651 Z M19.9022614,7.30487549 L18.0154685,9.1916611 L14.8083113,5.9845162 L16.6951041,4.09773059 C16.9919908,3.80084507 17.4763848,3.80084507 17.7732715,4.09773059 L19.9022614,6.22671228 C20.199148,6.5235978 20.199148,7.00408358 19.9022614,7.30487549 L19.9022614,7.30487549 Z" id="Shape" fill="#323539" fill-rule="nonzero"></path>
    </g>
</svg>