<?xml version="1.0" encoding="UTF-8"?>
<svg width="24px" height="24px" viewBox="0 0 24 24" version="1.1" xmlns="http://www.w3.org/2000/svg" xmlns:xlink="http://www.w3.org/1999/xlink">
    <!-- Generator: Sketch 55.2 (78181) - https://sketchapp.com -->
    <title>Icon / List View</title>
    <desc>Created with Sketch.</desc>
    <g id="Icon-/-List-View" stroke="none" stroke-width="1" fill="none" fill-rule="evenodd">
        <path d="M6.375,5.73076923 C6.375,6.68665865 5.61949219,7.46153846 4.6875,7.46153846 C3.75550781,7.46153846 3,6.68665865 3,5.73076923 C3,4.77487981 3.75550781,4 4.6875,4 C5.61949219,4 6.375,4.77487981 6.375,5.73076923 Z M4.6875,9.76923077 C3.75550781,9.76923077 3,10.5441106 3,11.5 C3,12.4558894 3.75550781,13.2307692 4.6875,13.2307692 C5.61949219,13.2307692 6.375,12.4558894 6.375,11.5 C6.375,10.5441106 5.61949219,9.76923077 4.6875,9.76923077 Z M4.6875,15.5384615 C3.75550781,15.5384615 3,16.3133413 3,17.2692308 C3,18.2251202 3.75550781,19 4.6875,19 C5.61949219,19 6.375,18.2251202 6.375,17.2692308 C6.375,16.3133413 5.61949219,15.5384615 4.6875,15.5384615 Z M21,6.30769231 L21,5.15384615 C21,4.91489183 20.8111055,4.72115385 20.578125,4.72115385 L7.921875,4.72115385 C7.68889453,4.72115385 7.5,4.91489183 7.5,5.15384615 L7.5,6.30769231 C7.5,6.54664663 7.68889453,6.74038462 7.921875,6.74038462 L20.578125,6.74038462 C20.8111055,6.74038462 21,6.54664663 21,6.30769231 Z M21,12.0769231 L21,10.9230769 C21,10.6841226 20.8111055,10.4903846 20.578125,10.4903846 L7.921875,10.4903846 C7.68889453,10.4903846 7.5,10.6841226 7.5,10.9230769 L7.5,12.0769231 C7.5,12.3158774 7.68889453,12.5096154 7.921875,12.5096154 L20.578125,12.5096154 C20.8111055,12.5096154 21,12.3158774 21,12.0769231 Z M21,17.8461538 L21,16.6923077 C21,16.4533534 20.8111055,16.2596154 20.578125,16.2596154 L7.921875,16.2596154 C7.68889453,16.2596154 7.5,16.4533534 7.5,16.6923077 L7.5,17.8461538 C7.5,18.0851082 7.68889453,18.2788462 7.921875,18.2788462 L20.578125,18.2788462 C20.8111055,18.2788462 21,18.0851082 21,17.8461538 Z" id="Shape" fill="#323539" fill-rule="nonzero"></path>
    </g>
</svg>