<?xml version="1.0" encoding="UTF-8"?>
<svg width="24px" height="24px" viewBox="0 0 24 24" version="1.1" xmlns="http://www.w3.org/2000/svg" xmlns:xlink="http://www.w3.org/1999/xlink">
    <!-- Generator: Sketch 55.2 (78181) - https://sketchapp.com -->
    <title>Icon / Move</title>
    <desc>Created with Sketch.</desc>
    <g id="Icon-/-Move" stroke="none" stroke-width="1" fill="none" fill-rule="evenodd">
        <path d="M12.7031453,11.2994752 L16.7760128,11.2994752 L16.7760128,8.62232153 C16.7760128,8.24646533 17.2304443,8.05823839 17.4961914,8.32402016 L20.8764429,11.704265 C21.0411857,11.8690076 21.0411857,12.1361253 20.8764429,12.3009029 L17.4961914,15.6811478 C17.2304091,15.9469296 16.7760128,15.7587027 16.7760128,15.3828465 L16.7760128,12.7057279 L12.7031102,12.7057279 L12.7031102,16.7759859 L15.3802691,16.7759859 C15.756126,16.7759859 15.9443533,17.2304165 15.678571,17.4961631 L12.2983195,20.8764431 C12.1335767,21.0411856 11.8664585,21.0411856 11.7016805,20.8764431 L8.32142899,17.4961982 C8.0556467,17.2304165 8.243874,16.776021 8.61973094,16.776021 L11.2968898,16.776021 L11.2968898,12.7057279 L7.2239872,12.7057279 L7.2239872,15.3828465 C7.2239872,15.7587027 6.76955574,15.9469296 6.50380861,15.6811478 L3.12355712,12.3009029 C2.95881429,12.1361604 2.95881429,11.8690427 3.12355712,11.704265 L6.50380861,8.32402016 C6.7695909,8.05823839 7.2239872,8.24646533 7.2239872,8.62232153 L7.2239872,11.2994752 L11.2968898,11.2994752 L11.2968898,7.22397895 L8.61976609,7.22397895 C8.24390916,7.22397895 8.05568186,6.76954838 8.32146415,6.50380177 L11.7017156,3.12355688 C11.8664585,2.95881437 12.1335767,2.95881437 12.2983547,3.12355688 L15.6786062,6.50380177 C15.9443885,6.76958353 15.7561612,7.22397895 15.3803042,7.22397895 L12.7031453,7.22397895 L12.7031453,11.2994752 Z" id="move" fill="#323539" fill-rule="nonzero"></path>
    </g>
</svg>