<?xml version="1.0" encoding="UTF-8"?>
<svg width="24px" height="24px" viewBox="0 0 24 24" version="1.1" xmlns="http://www.w3.org/2000/svg" xmlns:xlink="http://www.w3.org/1999/xlink">
    <!-- Generator: Sketch 55.2 (78181) - https://sketchapp.com -->
    <title>Icon / Notification</title>
    <desc>Created with Sketch.</desc>
    <g id="Icon-/-Notification" stroke="none" stroke-width="1" fill="none" fill-rule="evenodd">
        <path d="M20.0920938,14.9273047 C19.4095,14.2716406 18.7040848,13.5935938 18.7040848,10.3928125 C18.7040848,7.14960938 16.2548794,4.45242188 13.0603213,3.95679688 C13.207467,3.7488848 13.2860806,3.5023747 13.2857231,3.25 C13.2857231,2.55964844 12.7100847,2 12,2 C11.2899329,2 10.7142945,2.55964844 10.7142945,3.25 C10.7139298,3.50238201 10.7925284,3.74890294 10.9396561,3.95683594 C7.74513823,4.45246094 5.29593284,7.14964844 5.29593284,10.3928516 C5.29593284,13.5933594 4.59075873,14.2714453 3.90804443,14.9271484 C1.97561584,16.7828516 3.3907855,19.5 5.68871856,19.5 L9.42858022,19.5 C9.42858022,20.8807031 10.579857,22 12,22 C13.4201606,22 14.5714374,20.8807031 14.5714374,19.5 L18.3112589,19.5 C20.6090714,19.5 22.0243616,16.7819141 20.0920938,14.9273047 L20.0920938,14.9273047 Z M12.0000088,20.4375 C11.4682856,20.4375 11.0357231,20.0169531 11.0357231,19.5 L12.9642946,19.5 C12.9642946,20.0169531 12.531732,20.4375 12.0000088,20.4375 Z M18.3117411,17.625 L5.68795517,17.625 C5.01448195,17.625 4.67806676,16.8285156 5.15221409,16.3675391 C6.30071857,15.2509375 7.2245043,14.1908203 7.2245043,10.3928516 C7.2245043,7.83277344 9.36678558,5.75 12.0000088,5.75 C14.6332321,5.75 16.7755134,7.83277344 16.7755134,10.3928516 C16.7755134,14.2073047 17.7085,15.2590234 18.847442,16.3675391 C19.3236786,16.8305078 18.9823616,17.625 18.3117411,17.625 Z" id="Shape" fill="#323539" fill-rule="nonzero"></path>
    </g>
</svg>