<?xml version="1.0" encoding="UTF-8"?>
<svg width="24px" height="24px" viewBox="0 0 24 24" version="1.1" xmlns="http://www.w3.org/2000/svg" xmlns:xlink="http://www.w3.org/1999/xlink">
    <!-- Generator: Sketch 55.2 (78181) - https://sketchapp.com -->
    <title>Icon / Search</title>
    <desc>Created with Sketch.</desc>
    <g id="Icon-/-Search" stroke="none" stroke-width="1" fill="none" fill-rule="evenodd">
        <path d="M21.8623114,20.3155119 L17.1203555,15.573556 C17.0305161,15.4837166 16.9133343,15.4368439 16.7883404,15.4368439 L16.2727406,15.4368439 C17.5031493,14.0111323 18.2492066,12.1557541 18.2492066,10.1246033 C18.2492066,5.63654118 14.6126654,2 10.1246033,2 C5.63654118,2 2,5.63654118 2,10.1246033 C2,14.6126654 5.63654118,18.2492066 10.1246033,18.2492066 C12.1557541,18.2492066 14.0111323,17.5031493 15.4368439,16.2727406 L15.4368439,16.7883404 C15.4368439,16.9133343 15.4876227,17.0305161 15.573556,17.1203555 L20.3155119,21.8623114 C20.4990967,22.0458962 20.7959572,22.0458962 20.979542,21.8623114 L21.8623114,20.979542 C22.0458962,20.7959572 22.0458962,20.4990967 21.8623114,20.3155119 Z M10.1246033,16.3742981 C6.67164689,16.3742981 3.87490845,13.5775597 3.87490845,10.1246033 C3.87490845,6.67164689 6.67164689,3.87490845 10.1246033,3.87490845 C13.5775597,3.87490845 16.3742981,6.67164689 16.3742981,10.1246033 C16.3742981,13.5775597 13.5775597,16.3742981 10.1246033,16.3742981 Z" id="Search" fill="#323539" fill-rule="nonzero"></path>
    </g>
</svg>